<svg fill="none" height="37" viewBox="0 0 120 37" width="120" xmlns="http://www.w3.org/2000/svg" xmlns:xlink="http://www.w3.org/1999/xlink"><clipPath id="a"><path d="m0 0h120v37h-120z"/></clipPath><g clip-path="url(#a)"><path d="m43.1975 15.988c-3.8093 0-8.1319 1.8026-8.1319 6.1992 0 6.891 9.3932 4.6136 9.3932 7.8408 0 1.3175-1.3353 1.532-2.691 1.532-2.3822 0-4.7235-.812-6.2605-1.4707l-.2936 4.9583c1.9404.623 3.9677.9038 6.9345.9038 4.3225 0 8.8902-1.2766 8.8902-6.3702 0-7.251-9.8145-4.9149-9.8145-7.8791 0-1.0621 1.6162-1.3251 3.046-1.3251 1.6468 0 3.7379.4442 5.3362 1.3251l.5029-4.5804c-2.3285-.8783-4.6391-1.1337-6.9115-1.1337zm20.3234 0c-2.8212 0-5.2825.4034-7.9863 1.4298l.1046 4.4783c2.1907-1.103 4.3277-1.514 6.452-1.514 2.3821 0 4.3123.697 4.348 3.2987-.84-.1455-2.0042-.2502-3.0663-.2502-3.5183 0-9.8554.6868-9.8554 6.5157 0 4.1388 3.3703 6.0102 7.1439 6.0102 2.7115 0 4.5293-1.0646 6.0306-3.4493h.0817c0 .9906.1123 1.9787.1506 3.0076h6.0307c-.2936-1.5038-.3549-2.9948-.3549-4.4961v-7.103c0-5.8315-4.2051-7.9277-9.0792-7.9277zm46.4601 0c-2.818 0-5.282.4137-7.626 1.366l.105 4.4553c1.833-1.0238 3.97-1.4298 6.092-1.4298 2.382 0 4.314.6971 4.35 3.2988-.842-.1456-2.004-.2503-3.066-.2503-3.521 0-9.858.6868-9.858 6.5158 0 4.1387 3.368 6.0102 7.144 6.0102 2.711 0 4.527-1.0647 6.03-3.4494h.085c0 .9907.109 1.9788.145 3.0077h6.031c-.294-1.5038-.358-2.9949-.358-4.4962v-7.103c.008-5.8289-4.197-7.9251-9.074-7.9251zm-108.95707.4417 7.05957 19.0826h7.5243l7.0595-19.0826h-6.5566l-3.9932 13.5983h-.0638l-3.9702-13.5983zm24.04087 19.08h6.577v-19.0825h-6.577zm52.0519-19.0391v19.0391h6.263v-10.6978l6.7251 10.6978h6.4698v-19.0391h-6.3881v10.5906l-.0817-.0204-6.6639-10.5702zm-13.4477 10.4655c.9881 0 1.9328.0919 2.7702.1251 0 2.2392-1.5855 4.4988-4.0749 4.4988-1.5395 0-2.7114-.7634-2.7114-2.0809 0-1.8332 1.777-2.543 4.0161-2.543zm46.463 0c.988 0 1.93.0919 2.773.1251 0 2.2392-1.565 4.4988-4.055 4.4988-1.537 0-2.711-.7634-2.711-2.0809-.003-1.8332 1.756-2.543 3.993-2.543z" fill="#181716"/><path d="m119.803 13.8587c-18.666-9.09958-38.7697-13.713192-59.785-13.713192-21.0154 0-41.1192 4.613612-59.785578 13.713192l.158297.4136c19.008481-6.54126 39.268081-9.61275 59.627281-9.61275 20.3591 0 40.619 3.06894 59.627 9.61275z" fill="#e30613"/><path d="m43.1975 15.988c-3.8093 0-8.1319 1.8026-8.1319 6.1992 0 6.891 9.3932 4.6136 9.3932 7.8408 0 1.3175-1.3353 1.532-2.691 1.532-2.3822 0-4.7235-.812-6.2605-1.4707l-.2936 4.9583c1.9404.623 3.9677.9038 6.9345.9038 4.3225 0 8.8902-1.2766 8.8902-6.3702 0-7.251-9.8145-4.9149-9.8145-7.8791 0-1.0621 1.6162-1.3251 3.046-1.3251 1.6468 0 3.7379.4442 5.3362 1.3251l.5029-4.5804c-2.3285-.8783-4.6391-1.1337-6.9115-1.1337zm20.3234 0c-2.8212 0-5.2825.4034-7.9863 1.4298l.1046 4.4783c2.1907-1.103 4.3277-1.514 6.452-1.514 2.3821 0 4.3123.697 4.348 3.2987-.84-.1455-2.0042-.2502-3.0663-.2502-3.5183 0-9.8554.6868-9.8554 6.5157 0 4.1388 3.3703 6.0102 7.1439 6.0102 2.7115 0 4.5293-1.0646 6.0306-3.4493h.0817c0 .9906.1123 1.9787.1506 3.0076h6.0307c-.2936-1.5038-.3549-2.9948-.3549-4.4961v-7.103c0-5.8315-4.2051-7.9277-9.0792-7.9277zm46.4601 0c-2.818 0-5.282.4137-7.626 1.366l.105 4.4553c1.833-1.0238 3.97-1.4298 6.092-1.4298 2.382 0 4.314.6971 4.35 3.2988-.842-.1456-2.004-.2503-3.066-.2503-3.521 0-9.858.6868-9.858 6.5158 0 4.1387 3.368 6.0102 7.144 6.0102 2.711 0 4.527-1.0647 6.03-3.4494h.085c0 .9907.109 1.9788.145 3.0077h6.031c-.294-1.5038-.358-2.9949-.358-4.4962v-7.103c.008-5.8289-4.197-7.9251-9.074-7.9251zm-108.95707.4417 7.05957 19.0826h7.5243l7.0595-19.0826h-6.5566l-3.9932 13.5983h-.0638l-3.9702-13.5983zm24.04087 19.08h6.577v-19.0825h-6.577zm52.0519-19.0391v19.0391h6.263v-10.6978l6.7251 10.6978h6.4698v-19.0391h-6.3881v10.5906l-.0817-.0204-6.6639-10.5702zm-13.4477 10.4655c.9881 0 1.9328.0919 2.7702.1251 0 2.2392-1.5855 4.4988-4.0749 4.4988-1.5395 0-2.7114-.7634-2.7114-2.0809 0-1.8332 1.777-2.543 4.0161-2.543zm46.463 0c.988 0 1.93.0919 2.773.1251 0 2.2392-1.565 4.4988-4.055 4.4988-1.537 0-2.711-.7634-2.711-2.0809-.003-1.8332 1.756-2.543 3.993-2.543z" fill="#000"/><path d="m119.803 13.8587c-18.666-9.09958-38.7697-13.713192-59.785-13.713192-21.0154 0-41.1192 4.613612-59.785578 13.713192l.158297.4136c19.008481-6.54126 39.268081-9.61275 59.627281-9.61275 20.3591 0 40.619 3.06894 59.627 9.61275z" fill="#e30613"/></g></svg>