<svg width="98" height="35" viewBox="0 0 98 35" fill="none" xmlns="http://www.w3.org/2000/svg">
<g clip-path="url(#clip0_303_6242)">
<path d="M92.7227 4.79888V10.0859H98.0094V4.79888H92.7227Z" fill="#E72324"/>
<path d="M10.9897 25.6515C10.4035 26.3354 9.66497 26.8598 8.77274 27.2255C7.88188 27.5919 6.88813 27.7754 5.78818 27.7754C5.17831 27.7754 4.53747 27.6884 3.86497 27.5193C3.19287 27.3476 2.5704 27.0614 1.99717 26.6576C1.42355 26.2553 0.946849 25.713 0.567464 25.0279C0.189643 24.3439 0 23.4902 0 22.4643C0 21.4628 0.202247 20.5717 0.604885 19.7893C1.00713 19.0076 1.56326 18.355 2.27162 17.8302C2.97919 17.3054 3.81534 16.9078 4.78173 16.6391C5.74577 16.3716 6.78964 16.2368 7.91324 16.2368C8.52271 16.2368 9.14021 16.2495 9.76268 16.2727C10.3859 16.2983 10.7943 16.3346 10.9897 16.3834V16.017C10.9897 15.5773 10.8989 15.206 10.7153 14.8999C10.5325 14.5942 10.2872 14.3381 9.98251 14.1312C9.6765 13.922 9.32995 13.7763 8.93913 13.6916C8.54831 13.6045 8.1319 13.5626 7.69223 13.5626C6.52096 13.5626 5.57294 13.7763 4.78173 14.0011C3.43713 14.3823 2.43185 14.9331 1.89565 15.3006L1.90523 10.9616C2.36854 10.694 2.91852 10.4487 3.55359 10.2288C4.18867 10.009 4.90269 9.83225 5.69692 9.6983C6.48959 9.56357 7.40029 9.49713 8.42618 9.49713C11.0386 9.49713 12.9671 10.1986 14.214 11.6024C15.4585 13.0065 16.081 14.8942 16.081 17.2627V27.2624H11.1375L10.9897 25.6515ZM10.9897 19.6797C10.8676 19.6565 10.636 19.6251 10.294 19.5878C9.95203 19.5518 9.56121 19.532 9.12154 19.532C7.65716 19.532 6.61749 19.7412 6.00801 20.1557C5.39736 20.5717 5.09125 21.1571 5.09125 21.9143C5.09125 23.331 5.94734 24.0382 7.65716 24.0382C8.07123 24.0382 8.4807 23.9719 8.88334 23.8371C9.28569 23.7032 9.64055 23.5134 9.94626 23.2692C10.2501 23.0261 10.5012 22.7212 10.6978 22.354C10.8932 21.9876 10.9897 21.5617 10.9897 21.072V19.6797Z" fill="#324AB5"/>
<path d="M19.3403 14.2208V4.79732H24.6152V10.081H29.047V14.2208H24.6152V20.9986C24.6152 21.8291 24.7812 22.468 25.1087 22.9214C25.4651 23.4156 26.8235 24.166 29.1576 23.3591L29.1604 27.1978C28.1112 27.6551 27.0109 27.8848 25.8601 27.8848C24.6388 27.8848 23.6137 27.7077 22.7832 27.352C21.9527 26.9994 21.2806 26.5101 20.7685 25.8876C20.2555 25.2663 19.8884 24.5148 19.6693 23.6354C19.4487 22.7561 19.3403 21.7791 19.3403 20.7043V14.2208Z" fill="#324AB5"/>
<path d="M32.3157 10.0831H37.591V19.9725C37.591 20.9503 37.8296 21.7194 38.3063 22.2812C38.7822 22.8441 39.4844 23.1235 40.4126 23.1235C40.9491 23.1235 41.4248 23.0201 41.8411 22.8129C42.2563 22.6048 42.6101 22.3312 42.9032 21.988C43.1953 21.6461 43.4162 21.2427 43.5627 20.7793C43.7101 20.3153 43.7826 19.8397 43.7826 19.3512V10.0831H49.0205V27.2633H43.9662L43.8185 25.4313C43.2567 26.0916 42.5193 26.634 41.6018 27.0618C40.6874 27.4877 39.7286 27.7029 38.7272 27.7029C36.7487 27.7029 35.1854 27.1167 34.0374 25.9443C32.8894 24.7726 32.3157 23.0384 32.3157 20.7423V10.0831Z" fill="#324AB5"/>
<path d="M52.9424 10.0838H58.0337L58.1802 11.9516C58.742 11.2432 59.4622 10.7012 60.3415 10.3219C61.2209 9.94404 62.1364 9.7543 63.0891 9.7543C64.3348 9.7543 65.4329 9.99856 66.3855 10.486C67.3381 10.9745 68.1316 11.6271 68.7666 12.4461C69.4017 13.2648 69.8784 14.2048 70.196 15.2659C70.5135 16.3287 70.6711 17.423 70.6711 18.5458C70.6711 20.1335 70.4032 21.5128 69.867 22.6844C69.3284 23.8558 68.6319 24.8221 67.7778 25.5793C66.9229 26.3365 65.9577 26.8975 64.8829 27.2639C63.8093 27.6303 62.746 27.8139 61.6968 27.8139C60.8663 27.8139 60.1824 27.7395 59.6458 27.593C59.1076 27.4475 58.6199 27.301 58.1802 27.1533V34.5898H52.9424V10.0838ZM58.1802 22.7215C58.8634 23.1856 59.8768 23.418 61.2209 23.418C62.5148 23.418 63.5345 22.9845 64.2803 22.117C65.0237 21.2509 65.3959 20.0972 65.3959 18.6561C65.3959 18.0931 65.3294 17.5443 65.1947 17.007C65.0607 16.4704 64.8535 15.9993 64.5722 15.5971C64.2917 15.1933 63.9253 14.8701 63.473 14.6246C63.0215 14.3827 62.4659 14.2606 61.8071 14.2606C61.2209 14.2606 60.7011 14.369 60.2488 14.5896C59.7973 14.8086 59.4195 15.1025 59.1146 15.4689C58.8096 15.8345 58.5772 16.2498 58.4188 16.7138C58.2597 17.1787 58.1802 17.6535 58.1802 18.1432V22.7215Z" fill="#324AB5"/>
<path d="M73.5182 10.0855H78.6118L78.756 11.9407C79.1957 11.3544 81.1918 10.0931 83.554 10.0617C84.0171 10.0561 84.5163 10.0855 84.8466 10.135V14.8512C84.8466 14.8512 81.8925 13.6085 79.9472 15.2927C79.1373 15.9942 78.7924 17.3995 78.7924 18.7662V27.2656H73.5182V10.0855ZM84.8466 14.8512C84.8466 14.8512 81.8925 13.6085 79.9472 15.2927C79.1373 15.9942 78.7924 17.3995 78.7924 18.7662V27.2656H73.5182V10.0855H78.6118L78.756 11.9407C79.1957 11.3544 81.1918 10.0931 83.554 10.0617C84.0171 10.0561 84.5163 10.0855 84.8466 10.135" fill="#324AB5"/>
<path d="M87.4448 10.0855H92.7198V27.2656H87.4448V10.0855Z" fill="#324AB5"/>
</g>
<defs>
<clipPath id="clip0_303_6242">
<rect width="98" height="35" fill="white"/>
</clipPath>
</defs>
</svg>