<?xml version="1.0" encoding="utf-8"?>
<!-- Generator: Adobe Illustrator 24.2.1, SVG Export Plug-In . SVG Version: 6.00 Build 0)  -->
<svg version="1.1" id="Ebene_1" xmlns="http://www.w3.org/2000/svg" xmlns:xlink="http://www.w3.org/1999/xlink" x="0px" y="0px"
	 viewBox="0 0 104 40" style="enable-background:new 0 0 104 40;" xml:space="preserve">
<style type="text/css">
	.st0{fill:#FFFFFF;}
	.st1{fill:#DC0000;}
	.st2{fill:#8E0505;}
</style>
<g id="_xD83C__xDFA8_-Styleguide">
	<g id="Logo_1_" transform="translate(-123.000000, -159.000000)">
		<g id="desktop_x2F_atoms_x2F_logo_x2F_ökk_x2F_mit_x5F_claim-copy" transform="translate(123.000000, 159.000000)">
			<g id="desktop_x2F_logo_x2F_ökk_x2F_ohne_x5F_claim">
				<polygon id="Path" class="st0" points="1.1,38.9 103.1,38.9 103.1,0 1.1,0 				"/>
				<g id="Logo" transform="translate(0.990214, 0.812724)">
					<path id="Path_1_" class="st1" d="M47.9,33.4c0,0.9,0.3,2.7,3.2,3.1c0.8,0.1,0.6,0.4,0.6,0.5c0,0.2,0,0.4-0.7,0.4H38.4
						c-1,0-1.2,0.1-1.2-0.4c0-0.3,0.3-0.4,0.8-0.5c0.4-0.1,2.6-0.5,2.7-3.1c0.1-2.6,0.1-23.3,0-23.9c0-0.6,0.3-3.7-2.7-4
						c-0.8-0.1-0.8-0.2-0.8-0.5c0-0.4,0.3-0.5,1.2-0.5h12.4c0.6,0,0.9,0,0.9,0.5c0,0.3-0.3,0.4-0.9,0.5c-0.5,0.1-2.8-0.1-2.8,4
						L47.9,33.4L47.9,33.4z"/>
					<path id="Path_2_" class="st1" d="M50,17.6l7.1-8.8c0.2-0.3,1.9-2.9-1.9-3.1c-0.4,0-0.8,0.1-0.8-0.5c0-0.5,0.4-0.5,0.8-0.5
						c3.6,0.1,7.1,0.1,10.1,0C66,4.6,66,4.8,66,5.1s-0.2,0.3-0.7,0.5C64,5.9,61.8,6,57.7,10.8l-3.8,4.8c0,0,3.7,6.4,10.8,18.4
						c1.1,1.8,1.3,2.2,2.6,2.4c0.6,0.1,0.8,0.2,0.8,0.6c0,0.4-0.3,0.5-0.7,0.5H53.9c-0.3,0-0.6,0.1-0.6-0.5c0-0.3,0.2-0.4,0.9-0.5
						c0.7-0.1,3.5-0.1,2.1-2.6c-1.2-2-4.7-8.1-6.2-10.8V17.6L50,17.6z"/>
					<path id="Path_3_" class="st2" d="M27.7,3.2c0-1.8,1.4-3.2,3.2-3.2C32.6,0,34,1.4,34,3.2c0,1.8-1.4,3.2-3.2,3.2
						S27.7,5,27.7,3.2"/>
					<path id="Shape" class="st1" d="M3.2,6.4c1.7,0,3.2-1.4,3.2-3.2C6.3,2,5.4,0,3.2,0C1.4,0,0,1.4,0,3.2C0,5,1.4,6.4,3.2,6.4
						 M15.7,5.6V3.9C5.9,4.5,0.2,11.4,0.2,21c0,9.5,6.3,16.2,15.5,16.9v-1.8c-4.5-0.9-7.3-7.1-7.3-15.2C8.4,11,11.7,6.4,15.7,5.6
						 M81,33.4c0,0.9,0.3,2.7,3.2,3.1c0.8,0.1,0.6,0.4,0.6,0.5c0,0.2-0.1,0.4-0.7,0.4H71.5c-1,0-1.2,0.1-1.2-0.4
						c0-0.3,0.3-0.4,0.8-0.5c0.4-0.1,2.6-0.5,2.7-3.1c0.1-2.6,0.1-23.3,0-23.9c0-0.6,0.3-3.7-2.7-4c-0.8-0.1-0.8-0.2-0.8-0.5
						c0-0.4,0.3-0.5,1.2-0.5h12.4c0.6,0,0.9,0,0.9,0.5c0,0.3-0.3,0.4-0.9,0.5c-0.5,0.1-2.8-0.1-2.8,4L81,33.4L81,33.4z"/>
					<path id="Path_4_" class="st1" d="M83,17.6l7.1-8.8c0.2-0.3,1.9-2.9-1.9-3.1c-0.4,0-0.8,0.1-0.8-0.5c0-0.5,0.4-0.5,0.8-0.5
						c3.6,0.1,7.1,0.1,10.1,0c0.7,0,0.7,0.2,0.7,0.5s-0.2,0.3-0.7,0.5C97,5.9,94.9,6,90.8,10.8l-3.8,4.8c0,0,3.7,6.4,10.8,18.4
						c1.1,1.8,1.3,2.2,2.6,2.4c0.6,0.1,0.8,0.2,0.8,0.6c0,0.4-0.3,0.5-0.7,0.5H87c-0.3,0-0.6,0.1-0.6-0.5c0-0.3,0.2-0.4,0.9-0.5
						c0.7-0.1,3.5-0.1,2.1-2.6c-1.2-2-4.7-8.1-6.2-10.8V17.6L83,17.6z"/>
					<path id="Path_5_" class="st2" d="M18.6,3.9c9.2,0.7,15.5,7.5,15.5,16.9c0,9.6-5.7,16.5-15.5,17.1v-1.7c4-0.8,7.3-5.4,7.3-15.3
						c0-8.1-2.8-14.3-7.3-15.2V3.9z"/>
				</g>
			</g>
		</g>
	</g>
</g>
</svg>
